<svg
    version="1.1"
    id="Layer_1"
    xmlns="http://www.w3.org/2000/svg"
    viewBox="0 0 661 151.4"
    xmlSpace="preserve"
  >
    <g><path
        style={{ fill: "#ED2C24" }}
  d="M87.1,3.6C77.9-0.1,67.5-1,58.6,1.2c-10.8,2.6-19,9.4-23.2,19.2c-5.2,11.9-2.2,25.6,7.5,33.9
     c5.2,4.5,11.3,7,16.7,9.2c4.3,1.8,8.4,3.4,11.6,5.9c5.2,4.1,3.8,9.7,3.3,11.3c-1.3,3.7-4.7,7.7-10.5,7.7c-3.3,0-6.3-1.3-8.6-3.6
     s-3.6-5.4-3.6-8.6c0-4.4-3.6-8-8-8c-4.4,0-8,3.6-8,8c0,7.5,2.9,14.6,8.2,19.9c5.3,5.3,12.4,8.2,19.9,8.2c11.7,0,21.7-7.2,25.6-18.4
     c3.7-10.7,0.4-22.2-8.5-29.1c-4.9-3.8-10.5-6.1-15.4-8.1c-4.7-1.9-9.1-3.7-12.3-6.5c-4.5-3.9-5.7-9.9-3.3-15.6
     c5.6-13,22.1-12,31.1-8.3c15.4,6.2,27.4,22.2,29.8,39.8c0.7,5.3,0.6,10.6-0.4,15.8c-1.2,6.2-3.5,11.8-6.9,16.8
     c-3.4,4.9-7.6,9.2-11.4,12.9l-28.4,28.4L30,98.2c-15.3-15.3-18.5-39-7.7-57.7c1.1-1.8,1.3-4,0.8-6.1c-0.6-2.1-1.9-3.8-3.7-4.8
     c-1.2-0.7-2.6-1.1-4-1.1c-0.7,0-1.4,0.1-2.1,0.3c-2.1,0.6-3.8,1.9-4.8,3.7c-14.3,25-10.1,56.6,10.3,77l39.6,39.6
     c1.5,1.5,3.5,2.3,5.6,2.3c2.1,0,4.1-0.8,5.6-2.3l36-36c6.3-6.3,13.2-14,17.3-24.3c4.1-10.3,5.5-21.7,3.9-32.8
     C123.5,32.6,107.9,12,87.1,3.6z"
/>

    </g>
  </svg>